# xmcd
#
# Track frame offsets: 
#        150
#        13292
#        39377
#        63450
#        82907
#        104675
#        125737
#        145527
#        164177
#        186605
#        211287
#
# Disc length: 3130 seconds
#
# Revision: 3
# Processed by: cddbd v1.5.2PL0 Copyright (c) Steve Scherf et al.
# Submitted via: ExactAudioCopy v0.99pb5
#
DISCID=a60c380b
DTITLE=Twila Paris - Cry for the Desert
DYEAR=1990
DGENRE=Contemporary Christian
TTITLE0=Tributary
TTITLE1=Nothing But Love
TTITLE2=Cry For The Desert
TTITLE3=He Is A Song
TTITLE4=Undivided Heart
TTITLE5=How Beautiful
TTITLE6=I Will Wait
TTITLE7=I See You Standing
TTITLE8=This Thorn
TTITLE9=Celebration/Kingdom Of God
TTITLE10=Fix Your Eyes
EXTD=
EXTT0=
EXTT1=
EXTT2=
EXTT3=
EXTT4=
EXTT5=
EXTT6=
EXTT7=
EXTT8=
EXTT9=
EXTT10=
PLAYORDER=
